<?xml version="1.0" standalone="no"?>
<!DOCTYPE svg PUBLIC "-//W3C//DTD SVG 20010904//EN"
 "http://www.w3.org/TR/2001/REC-SVG-20010904/DTD/svg10.dtd">
<svg version="1.0" xmlns="http://www.w3.org/2000/svg"
 width="172.000000pt" height="98.000000pt" viewBox="0 0 172.000000 98.000000"
 preserveAspectRatio="xMidYMid meet">

<g transform="translate(0.000000,98.000000) scale(0.100000,-0.100000)"
fill="#000000" stroke="none">
<path d="M5 490 c0 -272 1 -384 2 -247 2 136 2 358 0 495 -1 136 -2 24 -2
-248z"/>
<path d="M1715 490 c0 -272 1 -384 2 -247 2 136 2 358 0 495 -1 136 -2 24 -2
-248z"/>
<path d="M820 565 c-15 -19 -11 -25 12 -16 11 4 14 11 9 19 -6 10 -10 10 -21
-3z"/>
<path d="M737 438 l-58 -93 87 -3 c73 -2 88 0 100 15 22 29 17 33 -41 33 -30
0 -55 2 -55 5 0 8 55 95 60 95 3 0 24 -34 48 -75 37 -66 46 -75 71 -75 l29 0
-56 95 c-55 90 -58 94 -92 95 -34 0 -38 -4 -93 -92z"/>
<path d="M992 518 c-15 -15 -16 -132 -2 -159 10 -17 22 -19 125 -19 l115 0 0
25 0 25 -100 0 -100 0 0 50 0 50 100 0 c93 0 100 1 100 20 0 19 -7 20 -113 20
-75 0 -117 -4 -125 -12z"/>
<path d="M1250 435 c0 -95 0 -95 25 -95 21 0 25 5 25 30 l0 30 98 0 c120 0
146 11 150 63 5 64 -3 67 -159 67 l-139 0 0 -95z m250 35 c0 -19 -7 -20 -100
-20 -93 0 -100 1 -100 20 0 19 7 20 100 20 93 0 100 -1 100 -20z"/>
</g>
</svg>
